<?xml version="1.0" encoding="iso-8859-1"?>
<!-- Generator: Adobe Illustrator 19.0.0, SVG Export Plug-In . SVG Version: 6.00 Build 0)  -->
<svg version="1.1" id="Capa_1" xmlns="http://www.w3.org/2000/svg" xmlns:xlink="http://www.w3.org/1999/xlink" x="0px" y="0px"
	 viewBox="0 0 468.293 468.293" style="enable-background:new 0 0 468.293 468.293;" xml:space="preserve">
<path style="fill:#2F4859;" d="M440.07,72.497H28.223C12.636,72.497,0,85.133,0,100.72v266.852
	c0,15.587,12.636,28.223,28.223,28.223H440.07c15.587,0,28.223-12.636,28.223-28.223V100.72
	C468.293,85.133,455.657,72.497,440.07,72.497z"/>
<path style="fill:#E56353;" d="M324.711,151.244v45.965c0,7.218,5.851,13.068,13.068,13.068h72.102
	c7.218,0,13.068-5.851,13.068-13.068v-45.965c0-7.218-5.851-13.068-13.068-13.068H337.78
	C330.562,138.176,324.711,144.027,324.711,151.244z"/>
<g>
	<path style="fill:#EBF0F3;" d="M46.288,118.883h20.315c4.021,0,7.02,0.168,8.996,0.503c1.976,0.335,3.744,1.034,5.304,2.097
		c1.56,1.063,2.86,2.479,3.9,4.247c1.04,1.768,1.56,3.75,1.56,5.945c0,2.38-0.641,4.564-1.924,6.552
		c-1.283,1.988-3.022,3.478-5.217,4.472c3.097,0.901,5.477,2.438,7.141,4.611c1.664,2.172,2.496,4.726,2.496,7.661
		c0,2.311-0.537,4.559-1.612,6.743s-2.542,3.929-4.403,5.235c-1.86,1.306-4.154,2.109-6.881,2.409
		c-1.71,0.185-5.836,0.3-12.376,0.347H46.288V118.883z M56.549,127.341v11.752h6.725c3.998,0,6.483-0.058,7.453-0.173
		c1.756-0.208,3.137-0.815,4.143-1.82s1.508-2.328,1.508-3.969c0-1.572-0.433-2.848-1.3-3.831s-2.155-1.577-3.865-1.785
		c-1.017-0.116-3.94-0.173-8.771-0.173H56.549z M56.549,147.552v13.59h9.499c3.698,0,6.044-0.104,7.037-0.312
		c1.525-0.277,2.768-0.953,3.727-2.028c0.959-1.075,1.439-2.513,1.439-4.316c0-1.525-0.37-2.82-1.109-3.883
		s-1.808-1.837-3.207-2.323s-4.432-0.728-9.1-0.728H56.549z"/>
	<path style="fill:#EBF0F3;" d="M143.356,169.705h-11.163l-4.437-11.544h-20.315l-4.195,11.544H92.36l19.795-50.822h10.851
		L143.356,169.705z M124.462,149.598l-7.003-18.859l-6.864,18.859H124.462z"/>
	<path style="fill:#EBF0F3;" d="M148.902,169.705v-50.822h9.984l20.8,33.939v-33.939h9.533v50.822h-10.296l-20.488-33.142v33.142
		H148.902z"/>
	<path style="fill:#EBF0F3;" d="M200.21,169.705v-50.822h10.261v22.568l20.731-22.568H245l-19.136,19.795l20.176,31.027h-13.278
		l-13.971-23.851l-8.32,8.493v15.358H200.21z"/>
	<rect x="25.55" y="324.62" style="fill:#EBF0F3;" width="39.767" height="24.795"/>
	<rect x="97.655" y="324.62" style="fill:#EBF0F3;" width="62.689" height="24.795"/>
	<rect x="179.325" y="324.62" style="fill:#EBF0F3;" width="70.8" height="24.795"/>
	<rect x="273.545" y="324.62" style="fill:#EBF0F3;" width="82.507" height="24.795"/>
	<rect x="383.088" y="324.62" style="fill:#EBF0F3;" width="59.654" height="24.795"/>
</g>
<g>
</g>
<g>
</g>
<g>
</g>
<g>
</g>
<g>
</g>
<g>
</g>
<g>
</g>
<g>
</g>
<g>
</g>
<g>
</g>
<g>
</g>
<g>
</g>
<g>
</g>
<g>
</g>
<g>
</g>
</svg>
