<svg id="Capa_1" enable-background="new 0 0 512 512" height="512" viewBox="0 0 512 512" width="512" xmlns="http://www.w3.org/2000/svg"><g><g><g><g fill="#7f392c"><path d="m166.627 59.768h30.926v82.596h-30.926z"/><path d="m313.526 59.768h30.926v82.596h-30.926z"/></g><g fill="#6d281f"><path d="m166.627 59.768h30.926v39.141h-30.926z"/><path d="m313.526 59.768h30.926v39.141h-30.926z"/></g><path d="m347.762 80.31h-184.445c-11.345 0-20.542-9.197-20.542-20.542 0-11.345 9.197-20.542 20.542-20.542h184.445c11.345 0 20.542 9.197 20.542 20.542 0 11.345-9.197 20.542-20.542 20.542z" fill="#ffaf40"/><path d="m298.583 39.225h-102.935c-11.345 0-20.542 9.197-20.542 20.542 0 11.345 9.197 20.542 20.542 20.542h102.935c11.345 0 20.542-9.197 20.542-20.542 0-11.345-9.197-20.542-20.542-20.542z" fill="#ffc751"/><path d="m257.489 39.225h-32.848c-11.345 0-20.542 9.197-20.542 20.542 0 11.345 9.197 20.542 20.542 20.542h32.848c11.345 0 20.542-9.197 20.542-20.542 0-11.345-9.197-20.542-20.542-20.542z" fill="#ffe059"/></g><g><g fill="#6d281f"><path d="m70.134 472.775h-15.377c-5.526 0-10.233-4.014-11.106-9.47l-5.233-32.693h48.056l-5.233 32.693c-.874 5.456-5.581 9.47-11.107 9.47z"/><path d="m457.982 472.775h-15.377c-5.526 0-10.233-4.014-11.106-9.47l-5.233-32.693h48.056l-5.233 32.693c-.874 5.456-5.581 9.47-11.107 9.47z"/></g><path d="m512 144.782v279.834c0 12.429-10.078 22.496-22.496 22.496h-467.008c-12.418-.001-22.496-10.067-22.496-22.496v-279.834c0-12.429 10.078-22.496 22.496-22.496h467.009c12.417 0 22.495 10.067 22.495 22.496z" fill="#b55434"/><g><ellipse cx="176.297" cy="238.317" fill="#7cbaf7" rx="64.93" ry="36.873" transform="matrix(.971 -.238 .238 .971 -51.725 48.893)"/><path d="m239.356 222.84c4.853 19.774-19.441 42.74-54.272 51.288-34.822 8.547-66.989-.56-71.842-20.335-.055-.223-.108-.438-.152-.655 12.439 5.685 30.779 6.869 49.995 2.153 31.703-7.781 53.817-28.68 49.398-46.684-.719-2.931-2.096-5.609-4.039-7.993 16.235 2.967 28.113 10.822 30.912 22.226z" fill="#48acff"/></g><path d="m76.395 142.364c0 42.179-34.205 76.384-76.395 76.384v-53.888c0-12.429 10.078-22.496 22.496-22.496z" fill="#a1412b"/><path d="m317.753 122.286h-146.671c-12.156 0-22.01 9.854-22.01 22.01 0 12.156 9.854 22.01 22.01 22.01h146.671c12.156 0 22.01-9.854 22.01-22.01 0-12.156-9.854-22.01-22.01-22.01z" fill="#db765a"/><path d="m257.532 122.286h-51.416c-12.156 0-22.01 9.854-22.01 22.01 0 12.156 9.854 22.01 22.01 22.01h51.416c12.156 0 22.01-9.854 22.01-22.01 0-12.156-9.855-22.01-22.01-22.01z" fill="#ef927d"/><g><g><path d="m44.02 325.034v-80.671c0-12.156-9.854-22.01-22.01-22.01-12.156 0-22.01 9.854-22.01 22.01v80.671c0 12.156 9.854 22.01 22.01 22.01 12.156 0 22.01-9.854 22.01-22.01z" fill="#db765a"/></g><path d="m44.02 286.094v-21.416c0-12.156-9.854-22.01-22.01-22.01-12.156 0-22.01 9.854-22.01 22.01v21.416c0 12.156 9.854 22.01 22.01 22.01 12.156 0 22.01-9.854 22.01-22.01z" fill="#ef927d"/></g><path d="m512 144.78v279.84c0 12.42-10.08 22.49-22.5 22.49h-467c-12.42 0-22.5-10.07-22.5-22.49v-46.78c46.86 33.84 104.41 53.79 166.63 53.79 157.33 0 284.88-127.55 284.88-284.88 0-8.24-.35-16.4-1.04-24.46h39.03c12.42 0 22.5 10.06 22.5 22.49z" fill="#a1412b"/><path d="m512 164.859v53.888c-42.19 0-76.395-34.204-76.395-76.384h53.899c12.418.001 22.496 10.067 22.496 22.496z" fill="#7f392c"/><path d="m512 242.62v182c0 12.42-10.08 22.49-22.5 22.49h-142.8c83.91-36.65 146.75-112.55 165.3-204.49z" fill="#7f392c"/><path d="m76.395 447.111h-53.899c-12.418 0-22.496-10.066-22.496-22.495v-53.888c42.19 0 76.395 34.193 76.395 76.383z" fill="#12adb5"/><path d="m76.395 122.286c0 42.179-34.205 76.384-76.395 76.384v-53.888c0-12.429 10.078-22.496 22.496-22.496z" fill="#12adb5"/><path d="m512 370.728v53.888c0 12.429-10.078 22.496-22.496 22.496h-53.899c0-42.191 34.205-76.384 76.395-76.384z" fill="#0d8ba0"/><path d="m512 144.782v53.888c-42.19 0-76.395-34.204-76.395-76.384h53.899c12.418 0 22.496 10.067 22.496 22.496z" fill="#0d8ba0"/><g><path d="m133.405 447.114h-71.698v-322.029c0-6.212 5.036-11.248 11.248-11.248h49.202c6.212 0 11.248 5.036 11.248 11.248z" fill="#ffaf40"/><path d="m110.596 329v-157.809c0-13.5-10.944-24.444-24.444-24.444-13.5 0-24.444 10.944-24.444 24.444v157.809c0 13.5 10.944 24.444 24.444 24.444 13.499 0 24.444-10.944 24.444-24.444z" fill="#ffc751"/><path d="m110.596 280.199v-69.974c0-13.5-10.944-24.444-24.444-24.444-13.5 0-24.444 10.944-24.444 24.444v69.974c0 13.5 10.944 24.444 24.444 24.444 13.499.001 24.444-10.943 24.444-24.444z" fill="#ffe059"/><path d="m450.293 447.114h-71.698v-322.029c0-6.212 5.036-11.248 11.248-11.248h49.202c6.212 0 11.248 5.036 11.248 11.248z" fill="#ffaf40"/></g></g></g><path d="m427.484 314.862v-157.809c0-13.5-10.944-24.444-24.444-24.444-13.5 0-24.444 10.944-24.444 24.444v157.809c0 13.5 10.944 24.444 24.444 24.444 13.5 0 24.444-10.944 24.444-24.444z" fill="#ffc751"/><path d="m427.484 259.198v-73.688c0-13.5-10.944-24.444-24.444-24.444-13.5 0-24.444 10.944-24.444 24.444v73.688c0 13.5 10.944 24.444 24.444 24.444 13.5 0 24.444-10.944 24.444-24.444z" fill="#ffe059"/><ellipse cx="328.989" cy="391.462" fill="#7f392c" rx="17.012" ry="16.529"/><ellipse cx="300.39" cy="344.865" fill="#a1412b" rx="13.136" ry="12.762"/><ellipse cx="256" cy="374.933" fill="#a1412b" rx="13.136" ry="12.762"/><g><path d="m248.305 307.108-64.225-12.743c-5.076-1.007-8.374-5.938-7.367-11.014l4.393-22.141c1.007-5.076 5.938-8.374 11.014-7.367l64.225 12.743c5.076 1.007 8.374 5.938 7.367 11.014l-4.393 22.141c-1.007 5.075-5.938 8.374-11.014 7.367z" fill="#ffc751"/><path d="m263.715 277.597-4.394 22.145c-1.007 5.074-5.942 8.375-11.016 7.368l-38.89-7.716c20.633.29 39.329-13.103 45.467-33.103l1.464.29c5.075 1.007 8.376 5.941 7.369 11.016z" fill="#ffaf40"/></g><g fill="#ff993a"><path d="m133.4 356.52v90.59h-71.69v-18.09c35.2-9.24 62.84-37.14 71.69-72.5z"/><path d="m450.29 338.52v108.59h-71.69v-36.09c35.2-9.24 62.84-37.14 71.69-72.5z"/></g></g></svg>