<?xml version="1.0" encoding="iso-8859-1"?>
<!-- Generator: Adobe Illustrator 19.0.0, SVG Export Plug-In . SVG Version: 6.00 Build 0)  -->
<svg version="1.1" id="Capa_1" xmlns="http://www.w3.org/2000/svg" xmlns:xlink="http://www.w3.org/1999/xlink" x="0px" y="0px"
	 viewBox="0 0 512 512" style="enable-background:new 0 0 512 512;" xml:space="preserve">
<g>
	<g>
		<path d="M507.607,216.526c-5.848-5.849-5.848-15.365,0-21.214c5.858-5.858,5.858-15.355-0.001-21.213l-63.64-63.64
			c-5.853-5.854-15.357-5.857-21.213,0c-5.864,5.862-15.349,5.863-21.214,0c-5.848-5.849-5.848-15.365,0-21.213
			c5.858-5.858,5.858-15.355,0-21.213L337.9,4.393C335.088,1.58,331.272,0,327.294,0c-3.978,0-7.794,1.581-10.606,4.394
			c-5.863,5.862-15.35,5.863-21.213,0C292.662,1.581,288.847,0,284.868,0c-3.979,0-7.794,1.58-10.606,4.393L4.394,274.261
			C1.581,277.075,0,280.89,0,284.868c0,3.978,1.581,7.794,4.394,10.607c5.863,5.863,5.863,15.35,0,21.213
			c-5.858,5.858-5.858,15.355,0,21.213l63.64,63.64c5.857,5.857,15.355,5.857,21.213,0c5.849-5.849,15.365-5.848,21.213,0
			c5.862,5.861,5.864,15.35,0,21.213c-5.855,5.855-5.857,15.356,0,21.213l63.64,63.64c5.857,5.857,15.355,5.858,21.213,0
			c5.862-5.862,15.35-5.864,21.213,0c5.854,5.854,15.356,5.857,21.213,0l269.868-269.868
			C513.465,231.881,513.465,222.384,507.607,216.526z M477.604,225.315l-23.031,23.031l-10.607-10.607
			c-5.857-5.859-15.355-5.857-21.213,0c-5.858,5.858-5.858,15.355,0,21.213l10.607,10.607L269.558,433.36l-10.607-10.607
			c-5.857-5.858-15.355-5.858-21.213,0c-5.858,5.858-5.858,15.355,0,21.213l10.606,10.606l-23.015,23.015
			c-12.186-5.834-26.621-5.841-38.822,0l-46.031-46.031c7.838-16.372,5.313-37.114-8.805-51.231
			c-13.829-13.829-34.491-16.758-51.215-8.789L34.41,325.49c5.835-12.187,5.841-26.622,0-38.823l23.015-23.015l10.607,10.607
			c5.857,5.858,15.355,5.858,21.213,0c5.858-5.858,5.858-15.355,0-21.213l-10.607-10.607L242.442,78.64l10.607,10.607
			c5.857,5.858,15.355,5.858,21.213,0c5.858-5.858,5.858-15.355,0-21.213l-10.606-10.606l23.015-23.015
			c12.186,5.834,26.622,5.841,38.822,0l46.046,46.046c-7.969,16.724-5.039,37.387,8.789,51.215
			c14.104,14.103,34.844,16.65,51.231,8.805l46.046,46.046C471.777,198.752,471.777,213.086,477.604,225.315z"/>
	</g>
</g>
<g>
	<g>
		<path d="M347.581,261.352l-36.167-25.577l0.566-44.294c0.072-5.709-3.102-10.965-8.189-13.557
			c-5.089-2.593-11.205-2.072-15.78,1.344l-35.502,26.493l-41.951-14.226c-5.408-1.833-11.387-0.439-15.424,3.599
			c-4.038,4.037-5.433,10.017-3.599,15.424l14.227,41.951l-26.493,35.501c-3.415,4.576-3.936,10.694-1.344,15.781
			c2.563,5.03,7.729,8.19,13.364,8.19c0.064,0,0.128,0,0.193-0.001l44.293-0.566l25.577,36.167
			c3.309,4.678,8.977,7.045,14.594,6.154c5.639-0.893,10.283-4.91,11.977-10.363l13.149-42.301l42.3-13.149
			c5.453-1.695,9.47-6.338,10.363-11.978C354.629,270.306,352.242,264.649,347.581,261.352z M284.637,274.765
			c-4.715,1.466-8.406,5.157-9.872,9.871l-6.468,20.808l-12.582-17.791c-2.814-3.979-7.381-6.339-12.247-6.339
			c-0.063,0-0.128,0-0.192,0.001l-21.788,0.279l13.032-17.463c2.953-3.957,3.77-9.113,2.184-13.789l-6.998-20.636l20.636,6.998
			c4.676,1.585,9.832,0.769,13.789-2.184l17.463-13.032l-0.278,21.788c-0.063,4.937,2.308,9.588,6.338,12.439l17.791,12.581
			L284.637,274.765z"/>
	</g>
</g>
<g>
	<g>
		<path d="M337.901,131.673l-21.213-21.213c-5.857-5.858-15.355-5.858-21.213,0c-5.858,5.858-5.858,15.355,0,21.213l21.213,21.213
			c5.856,5.858,15.354,5.858,21.213,0C343.759,147.028,343.759,137.531,337.901,131.673z"/>
	</g>
</g>
<g>
	<g>
		<path d="M401.54,195.312l-21.213-21.213c-5.856-5.858-15.354-5.858-21.213,0c-5.859,5.858-5.858,15.355,0,21.213l21.213,21.213
			c5.856,5.858,15.354,5.858,21.213,0C407.398,210.667,407.398,201.17,401.54,195.312z"/>
	</g>
</g>
<g>
	<g>
		<path d="M152.885,316.687l-21.213-21.213c-5.857-5.858-15.355-5.858-21.213,0c-5.858,5.858-5.858,15.355,0,21.213l21.213,21.213
			c5.857,5.857,15.355,5.858,21.213,0C158.743,332.042,158.743,322.545,152.885,316.687z"/>
	</g>
</g>
<g>
	<g>
		<path d="M216.525,380.327l-21.213-21.213c-5.857-5.858-15.355-5.858-21.213,0c-5.858,5.858-5.858,15.355,0,21.213l21.213,21.213
			c5.857,5.857,15.355,5.858,21.213,0C222.383,395.682,222.383,386.185,216.525,380.327z"/>
	</g>
</g>
<g>
</g>
<g>
</g>
<g>
</g>
<g>
</g>
<g>
</g>
<g>
</g>
<g>
</g>
<g>
</g>
<g>
</g>
<g>
</g>
<g>
</g>
<g>
</g>
<g>
</g>
<g>
</g>
<g>
</g>
</svg>
